<svg version="1.1" xmlns="http://www.w3.org/2000/svg" xmlns:xlink="http://www.w3.org/1999/xlink" width="395.26220703125" height="254"><defs/><g><text fill="#eeeeee" stroke="none" font-family="Arial" font-size="24px" font-style="normal" font-weight="normal" text-decoration="none" x="0" y="0">UNREGISTERED</text><text fill="#eeeeee" stroke="none" font-family="Arial" font-size="24px" font-style="normal" font-weight="normal" text-decoration="none" x="0" y="30">UNREGISTERED</text><text fill="#eeeeee" stroke="none" font-family="Arial" font-size="24px" font-style="normal" font-weight="normal" text-decoration="none" x="0" y="60">UNREGISTERED</text><text fill="#eeeeee" stroke="none" font-family="Arial" font-size="24px" font-style="normal" font-weight="normal" text-decoration="none" x="0" y="90">UNREGISTERED</text><text fill="#eeeeee" stroke="none" font-family="Arial" font-size="24px" font-style="normal" font-weight="normal" text-decoration="none" x="0" y="120">UNREGISTERED</text><text fill="#eeeeee" stroke="none" font-family="Arial" font-size="24px" font-style="normal" font-weight="normal" text-decoration="none" x="0" y="150">UNREGISTERED</text><text fill="#eeeeee" stroke="none" font-family="Arial" font-size="24px" font-style="normal" font-weight="normal" text-decoration="none" x="0" y="180">UNREGISTERED</text><text fill="#eeeeee" stroke="none" font-family="Arial" font-size="24px" font-style="normal" font-weight="normal" text-decoration="none" x="0" y="210">UNREGISTERED</text><text fill="#eeeeee" stroke="none" font-family="Arial" font-size="24px" font-style="normal" font-weight="normal" text-decoration="none" x="0" y="240">UNREGISTERED</text><text fill="#eeeeee" stroke="none" font-family="Arial" font-size="24px" font-style="normal" font-weight="normal" text-decoration="none" x="200" y="0">UNREGISTERED</text><text fill="#eeeeee" stroke="none" font-family="Arial" font-size="24px" font-style="normal" font-weight="normal" text-decoration="none" x="200" y="30">UNREGISTERED</text><text fill="#eeeeee" stroke="none" font-family="Arial" font-size="24px" font-style="normal" font-weight="normal" text-decoration="none" x="200" y="60">UNREGISTERED</text><text fill="#eeeeee" stroke="none" font-family="Arial" font-size="24px" font-style="normal" font-weight="normal" text-decoration="none" x="200" y="90">UNREGISTERED</text><text fill="#eeeeee" stroke="none" font-family="Arial" font-size="24px" font-style="normal" font-weight="normal" text-decoration="none" x="200" y="120">UNREGISTERED</text><text fill="#eeeeee" stroke="none" font-family="Arial" font-size="24px" font-style="normal" font-weight="normal" text-decoration="none" x="200" y="150">UNREGISTERED</text><text fill="#eeeeee" stroke="none" font-family="Arial" font-size="24px" font-style="normal" font-weight="normal" text-decoration="none" x="200" y="180">UNREGISTERED</text><text fill="#eeeeee" stroke="none" font-family="Arial" font-size="24px" font-style="normal" font-weight="normal" text-decoration="none" x="200" y="210">UNREGISTERED</text><text fill="#eeeeee" stroke="none" font-family="Arial" font-size="24px" font-style="normal" font-weight="normal" text-decoration="none" x="200" y="240">UNREGISTERED</text><g transform="translate(-150,-216) scale(1,1)"><rect fill="#C0C0C0" stroke="none" x="300" y="233" width="62.345703125" height="44" opacity="0.2"/></g><g transform="translate(-150,-216) scale(1,1)"><rect fill="#ffffff" stroke="none" x="293" y="226" width="62.345703125" height="44"/></g><g transform="translate(-150,-216) scale(1,1)"><path fill="none" stroke="#000000" d="M 293 226 L 355.345703125 226 L 355.345703125 270 L 293 270 L 293 226 Z Z" stroke-miterlimit="10"/></g><g transform="translate(-150,-216) scale(1,1)"><path fill="none" stroke="#000000" d="M 293 251 L 355.345703125 251" stroke-miterlimit="10"/></g><g transform="translate(-150,-216) scale(1,1)"><path fill="none" stroke="#000000" d="M 293 261 L 355.345703125 261" stroke-miterlimit="10"/></g><g transform="translate(-150,-216) scale(1,1)"><g><path fill="none" stroke="none"/><text fill="#000000" stroke="none" font-family="Roboto" font-size="13px" font-style="normal" font-weight="bold" text-decoration="none" x="298.2490234375" y="245.5">Renderer</text></g></g><g transform="translate(-150,-216) scale(1,1)"><rect fill="#C0C0C0" stroke="none" x="463" y="423" width="79.26220703125" height="44" opacity="0.2"/></g><g transform="translate(-150,-216) scale(1,1)"><rect fill="#ffffff" stroke="none" x="456" y="416" width="79.26220703125" height="44"/></g><g transform="translate(-150,-216) scale(1,1)"><path fill="none" stroke="#000000" d="M 456 416 L 535.26220703125 416 L 535.26220703125 460 L 456 460 L 456 416 Z Z" stroke-miterlimit="10"/></g><g transform="translate(-150,-216) scale(1,1)"><path fill="none" stroke="#000000" d="M 456 441 L 535.26220703125 441" stroke-miterlimit="10"/></g><g transform="translate(-150,-216) scale(1,1)"><path fill="none" stroke="#000000" d="M 456 451 L 535.26220703125 451" stroke-miterlimit="10"/></g><g transform="translate(-150,-216) scale(1,1)"><g><path fill="none" stroke="none"/><text fill="#000000" stroke="none" font-family="Roboto" font-size="13px" font-style="normal" font-weight="bold" text-decoration="none" x="461.969482421875" y="435.5">VertexArray</text></g></g><g transform="translate(-150,-216) scale(1,1)"><path fill="none" stroke="#000000" d="M 345 271 L 474 415" stroke-miterlimit="10" stroke-dasharray="3"/></g><g transform="translate(-150,-216) scale(1,1)"><path fill="none" stroke="#000000" d="M 464.08357468739945 410.23927431796216 L 474 415 L 470.3543698294681 404.6216870031923" stroke-miterlimit="10"/></g><g transform="translate(-150,-216) scale(1,1)"><rect fill="#C0C0C0" stroke="none" x="295" y="423" width="83.84521484375" height="44" opacity="0.2"/></g><g transform="translate(-150,-216) scale(1,1)"><rect fill="#ffffff" stroke="none" x="288" y="416" width="83.84521484375" height="44"/></g><g transform="translate(-150,-216) scale(1,1)"><path fill="none" stroke="#000000" d="M 288 416 L 371.84521484375 416 L 371.84521484375 460 L 288 460 L 288 416 Z Z" stroke-miterlimit="10"/></g><g transform="translate(-150,-216) scale(1,1)"><path fill="none" stroke="#000000" d="M 288 441 L 371.84521484375 441" stroke-miterlimit="10"/></g><g transform="translate(-150,-216) scale(1,1)"><path fill="none" stroke="#000000" d="M 288 451 L 371.84521484375 451" stroke-miterlimit="10"/></g><g transform="translate(-150,-216) scale(1,1)"><g><path fill="none" stroke="none"/><text fill="#000000" stroke="none" font-family="Roboto" font-size="13px" font-style="normal" font-weight="bold" text-decoration="none" x="293.626708984375" y="435.5">VertexBuffer</text></g></g><g transform="translate(-150,-216) scale(1,1)"><path fill="none" stroke="#000000" d="M 325 271 L 328 415" stroke-miterlimit="10" stroke-dasharray="3"/></g><g transform="translate(-150,-216) scale(1,1)"><path fill="none" stroke="#000000" d="M 323.57971900942056 404.92720912734103 L 328 415 L 331.9969280683424 404.75185060528014" stroke-miterlimit="10"/></g><g transform="translate(-150,-216) scale(1,1)"><rect fill="#C0C0C0" stroke="none" x="167" y="423" width="50.32958984375" height="44" opacity="0.2"/></g><g transform="translate(-150,-216) scale(1,1)"><rect fill="#ffffff" stroke="none" x="160" y="416" width="50.32958984375" height="44"/></g><g transform="translate(-150,-216) scale(1,1)"><path fill="none" stroke="#000000" d="M 160 416 L 210.32958984375 416 L 210.32958984375 460 L 160 460 L 160 416 Z Z" stroke-miterlimit="10"/></g><g transform="translate(-150,-216) scale(1,1)"><path fill="none" stroke="#000000" d="M 160 441 L 210.32958984375 441" stroke-miterlimit="10"/></g><g transform="translate(-150,-216) scale(1,1)"><path fill="none" stroke="#000000" d="M 160 451 L 210.32958984375 451" stroke-miterlimit="10"/></g><g transform="translate(-150,-216) scale(1,1)"><g><path fill="none" stroke="none"/><text fill="#000000" stroke="none" font-family="Roboto" font-size="13px" font-style="normal" font-weight="bold" text-decoration="none" x="164.884033203125" y="435.5">Shader</text></g></g><g transform="translate(-150,-216) scale(1,1)"><path fill="none" stroke="#000000" d="M 307 271 L 202 415" stroke-miterlimit="10" stroke-dasharray="3"/></g><g transform="translate(-150,-216) scale(1,1)"><path fill="none" stroke="#000000" d="M 204.58624302588316 404.30835152976533 L 202 415 L 211.3888871167641 409.2686128460327" stroke-miterlimit="10"/></g></g></svg>