<svg version="1.1" xmlns="http://www.w3.org/2000/svg" xmlns:xlink="http://www.w3.org/1999/xlink" width="670.76904296875" height="339"><defs/><g><text fill="#eeeeee" stroke="none" font-family="Arial" font-size="24px" font-style="normal" font-weight="normal" text-decoration="none" x="0" y="0">UNREGISTERED</text><text fill="#eeeeee" stroke="none" font-family="Arial" font-size="24px" font-style="normal" font-weight="normal" text-decoration="none" x="0" y="30">UNREGISTERED</text><text fill="#eeeeee" stroke="none" font-family="Arial" font-size="24px" font-style="normal" font-weight="normal" text-decoration="none" x="0" y="60">UNREGISTERED</text><text fill="#eeeeee" stroke="none" font-family="Arial" font-size="24px" font-style="normal" font-weight="normal" text-decoration="none" x="0" y="90">UNREGISTERED</text><text fill="#eeeeee" stroke="none" font-family="Arial" font-size="24px" font-style="normal" font-weight="normal" text-decoration="none" x="0" y="120">UNREGISTERED</text><text fill="#eeeeee" stroke="none" font-family="Arial" font-size="24px" font-style="normal" font-weight="normal" text-decoration="none" x="0" y="150">UNREGISTERED</text><text fill="#eeeeee" stroke="none" font-family="Arial" font-size="24px" font-style="normal" font-weight="normal" text-decoration="none" x="0" y="180">UNREGISTERED</text><text fill="#eeeeee" stroke="none" font-family="Arial" font-size="24px" font-style="normal" font-weight="normal" text-decoration="none" x="0" y="210">UNREGISTERED</text><text fill="#eeeeee" stroke="none" font-family="Arial" font-size="24px" font-style="normal" font-weight="normal" text-decoration="none" x="0" y="240">UNREGISTERED</text><text fill="#eeeeee" stroke="none" font-family="Arial" font-size="24px" font-style="normal" font-weight="normal" text-decoration="none" x="0" y="270">UNREGISTERED</text><text fill="#eeeeee" stroke="none" font-family="Arial" font-size="24px" font-style="normal" font-weight="normal" text-decoration="none" x="0" y="300">UNREGISTERED</text><text fill="#eeeeee" stroke="none" font-family="Arial" font-size="24px" font-style="normal" font-weight="normal" text-decoration="none" x="0" y="330">UNREGISTERED</text><text fill="#eeeeee" stroke="none" font-family="Arial" font-size="24px" font-style="normal" font-weight="normal" text-decoration="none" x="200" y="0">UNREGISTERED</text><text fill="#eeeeee" stroke="none" font-family="Arial" font-size="24px" font-style="normal" font-weight="normal" text-decoration="none" x="200" y="30">UNREGISTERED</text><text fill="#eeeeee" stroke="none" font-family="Arial" font-size="24px" font-style="normal" font-weight="normal" text-decoration="none" x="200" y="60">UNREGISTERED</text><text fill="#eeeeee" stroke="none" font-family="Arial" font-size="24px" font-style="normal" font-weight="normal" text-decoration="none" x="200" y="90">UNREGISTERED</text><text fill="#eeeeee" stroke="none" font-family="Arial" font-size="24px" font-style="normal" font-weight="normal" text-decoration="none" x="200" y="120">UNREGISTERED</text><text fill="#eeeeee" stroke="none" font-family="Arial" font-size="24px" font-style="normal" font-weight="normal" text-decoration="none" x="200" y="150">UNREGISTERED</text><text fill="#eeeeee" stroke="none" font-family="Arial" font-size="24px" font-style="normal" font-weight="normal" text-decoration="none" x="200" y="180">UNREGISTERED</text><text fill="#eeeeee" stroke="none" font-family="Arial" font-size="24px" font-style="normal" font-weight="normal" text-decoration="none" x="200" y="210">UNREGISTERED</text><text fill="#eeeeee" stroke="none" font-family="Arial" font-size="24px" font-style="normal" font-weight="normal" text-decoration="none" x="200" y="240">UNREGISTERED</text><text fill="#eeeeee" stroke="none" font-family="Arial" font-size="24px" font-style="normal" font-weight="normal" text-decoration="none" x="200" y="270">UNREGISTERED</text><text fill="#eeeeee" stroke="none" font-family="Arial" font-size="24px" font-style="normal" font-weight="normal" text-decoration="none" x="200" y="300">UNREGISTERED</text><text fill="#eeeeee" stroke="none" font-family="Arial" font-size="24px" font-style="normal" font-weight="normal" text-decoration="none" x="200" y="330">UNREGISTERED</text><text fill="#eeeeee" stroke="none" font-family="Arial" font-size="24px" font-style="normal" font-weight="normal" text-decoration="none" x="400" y="0">UNREGISTERED</text><text fill="#eeeeee" stroke="none" font-family="Arial" font-size="24px" font-style="normal" font-weight="normal" text-decoration="none" x="400" y="30">UNREGISTERED</text><text fill="#eeeeee" stroke="none" font-family="Arial" font-size="24px" font-style="normal" font-weight="normal" text-decoration="none" x="400" y="60">UNREGISTERED</text><text fill="#eeeeee" stroke="none" font-family="Arial" font-size="24px" font-style="normal" font-weight="normal" text-decoration="none" x="400" y="90">UNREGISTERED</text><text fill="#eeeeee" stroke="none" font-family="Arial" font-size="24px" font-style="normal" font-weight="normal" text-decoration="none" x="400" y="120">UNREGISTERED</text><text fill="#eeeeee" stroke="none" font-family="Arial" font-size="24px" font-style="normal" font-weight="normal" text-decoration="none" x="400" y="150">UNREGISTERED</text><text fill="#eeeeee" stroke="none" font-family="Arial" font-size="24px" font-style="normal" font-weight="normal" text-decoration="none" x="400" y="180">UNREGISTERED</text><text fill="#eeeeee" stroke="none" font-family="Arial" font-size="24px" font-style="normal" font-weight="normal" text-decoration="none" x="400" y="210">UNREGISTERED</text><text fill="#eeeeee" stroke="none" font-family="Arial" font-size="24px" font-style="normal" font-weight="normal" text-decoration="none" x="400" y="240">UNREGISTERED</text><text fill="#eeeeee" stroke="none" font-family="Arial" font-size="24px" font-style="normal" font-weight="normal" text-decoration="none" x="400" y="270">UNREGISTERED</text><text fill="#eeeeee" stroke="none" font-family="Arial" font-size="24px" font-style="normal" font-weight="normal" text-decoration="none" x="400" y="300">UNREGISTERED</text><text fill="#eeeeee" stroke="none" font-family="Arial" font-size="24px" font-style="normal" font-weight="normal" text-decoration="none" x="400" y="330">UNREGISTERED</text><text fill="#eeeeee" stroke="none" font-family="Arial" font-size="24px" font-style="normal" font-weight="normal" text-decoration="none" x="600" y="0">UNREGISTERED</text><text fill="#eeeeee" stroke="none" font-family="Arial" font-size="24px" font-style="normal" font-weight="normal" text-decoration="none" x="600" y="30">UNREGISTERED</text><text fill="#eeeeee" stroke="none" font-family="Arial" font-size="24px" font-style="normal" font-weight="normal" text-decoration="none" x="600" y="60">UNREGISTERED</text><text fill="#eeeeee" stroke="none" font-family="Arial" font-size="24px" font-style="normal" font-weight="normal" text-decoration="none" x="600" y="90">UNREGISTERED</text><text fill="#eeeeee" stroke="none" font-family="Arial" font-size="24px" font-style="normal" font-weight="normal" text-decoration="none" x="600" y="120">UNREGISTERED</text><text fill="#eeeeee" stroke="none" font-family="Arial" font-size="24px" font-style="normal" font-weight="normal" text-decoration="none" x="600" y="150">UNREGISTERED</text><text fill="#eeeeee" stroke="none" font-family="Arial" font-size="24px" font-style="normal" font-weight="normal" text-decoration="none" x="600" y="180">UNREGISTERED</text><text fill="#eeeeee" stroke="none" font-family="Arial" font-size="24px" font-style="normal" font-weight="normal" text-decoration="none" x="600" y="210">UNREGISTERED</text><text fill="#eeeeee" stroke="none" font-family="Arial" font-size="24px" font-style="normal" font-weight="normal" text-decoration="none" x="600" y="240">UNREGISTERED</text><text fill="#eeeeee" stroke="none" font-family="Arial" font-size="24px" font-style="normal" font-weight="normal" text-decoration="none" x="600" y="270">UNREGISTERED</text><text fill="#eeeeee" stroke="none" font-family="Arial" font-size="24px" font-style="normal" font-weight="normal" text-decoration="none" x="600" y="300">UNREGISTERED</text><text fill="#eeeeee" stroke="none" font-family="Arial" font-size="24px" font-style="normal" font-weight="normal" text-decoration="none" x="600" y="330">UNREGISTERED</text><g transform="translate(-239,-254) scale(1,1)"><rect fill="#C0C0C0" stroke="none" x="256" y="271" width="297.919921875" height="130" opacity="0.2"/></g><g transform="translate(-239,-254) scale(1,1)"><rect fill="#ffffff" stroke="none" x="249" y="264" width="297.919921875" height="130"/></g><g transform="translate(-239,-254) scale(1,1)"><path fill="none" stroke="#000000" d="M 249 264 L 546.919921875 264 L 546.919921875 394 L 249 394 L 249 264 Z Z" stroke-miterlimit="10"/></g><g transform="translate(-239,-254) scale(1,1)"><path fill="none" stroke="#000000" d="M 249 289 L 546.919921875 289" stroke-miterlimit="10"/></g><g transform="translate(-239,-254) scale(1,1)"><path fill="none" stroke="#000000" d="M 249 312 L 546.919921875 312" stroke-miterlimit="10"/></g><g transform="translate(-239,-254) scale(1,1)"><g><path fill="none" stroke="none"/><text fill="#000000" stroke="none" font-family="Roboto" font-size="13px" font-style="normal" font-weight="bold" text-decoration="none" x="374.77197265625" y="283.5">Window</text></g></g><g transform="translate(-239,-254) scale(1,1)"><g><path fill="none" stroke="none"/><text fill="#000000" stroke="none" font-family="Roboto" font-size="13px" font-style="normal" font-weight="normal" text-decoration="none" x="254" y="306.5">#m_graphicsContext: GraphicsContext</text></g></g><g transform="translate(-239,-254) scale(1,1)"><g><path fill="none" stroke="none"/><text fill="#000000" stroke="none" font-family="Roboto" font-size="13px" font-style="normal" font-weight="normal" text-decoration="none" x="254" y="329.5">+Create(width: int, height: int, title: string): Window</text><path fill="none" stroke="#000000" d="M 254 329.5 L 542.919921875 329.5" stroke-miterlimit="10"/></g></g><g transform="translate(-239,-254) scale(1,1)"><g><path fill="none" stroke="none"/><text fill="#000000" stroke="none" font-family="Roboto" font-size="13px" font-style="normal" font-weight="normal" text-decoration="none" x="254" y="344.5">+Window()</text></g></g><g transform="translate(-239,-254) scale(1,1)"><g><path fill="none" stroke="none"/><text fill="#000000" stroke="none" font-family="Roboto" font-size="13px" font-style="normal" font-weight="normal" text-decoration="none" x="254" y="359.5">+Window(width: int, height: int, title: string)</text></g></g><g transform="translate(-239,-254) scale(1,1)"><g><path fill="none" stroke="none"/><text fill="#000000" stroke="none" font-family="Roboto" font-size="13px" font-style="normal" font-weight="normal" text-decoration="none" x="254" y="374.5">+Update(): void</text></g></g><g transform="translate(-239,-254) scale(1,1)"><g><path fill="none" stroke="none"/><text fill="#000000" stroke="none" font-family="Roboto" font-size="13px" font-style="normal" font-weight="normal" text-decoration="none" x="254" y="389.5">+Dispose(): void</text></g></g><g transform="translate(-239,-254) scale(1,1)"><rect fill="#C0C0C0" stroke="none" x="280" y="503" width="246.9609375" height="87" opacity="0.2"/></g><g transform="translate(-239,-254) scale(1,1)"><rect fill="#ffffff" stroke="none" x="273" y="496" width="246.9609375" height="87"/></g><g transform="translate(-239,-254) scale(1,1)"><path fill="none" stroke="#000000" d="M 273 496 L 519.9609375 496 L 519.9609375 583 L 273 583 L 273 496 Z Z" stroke-miterlimit="10"/></g><g transform="translate(-239,-254) scale(1,1)"><path fill="none" stroke="#000000" d="M 273 521 L 519.9609375 521" stroke-miterlimit="10"/></g><g transform="translate(-239,-254) scale(1,1)"><path fill="none" stroke="#000000" d="M 273 531 L 519.9609375 531" stroke-miterlimit="10"/></g><g transform="translate(-239,-254) scale(1,1)"><g><path fill="none" stroke="none"/><text fill="#000000" stroke="none" font-family="Roboto" font-size="13px" font-style="normal" font-weight="bold" text-decoration="none" x="348.450927734375" y="515.5">GraphicsContext</text></g></g><g transform="translate(-239,-254) scale(1,1)"><g><path fill="none" stroke="none"/><text fill="#000000" stroke="none" font-family="Roboto" font-size="13px" font-style="normal" font-weight="normal" text-decoration="none" x="278" y="548.5">+GraphicsContext()</text></g></g><g transform="translate(-239,-254) scale(1,1)"><g><path fill="none" stroke="none"/><text fill="#000000" stroke="none" font-family="Roboto" font-size="13px" font-style="normal" font-weight="normal" text-decoration="none" x="278" y="563.5">+GraphicsContext(nativeWindow: void*)</text></g></g><g transform="translate(-239,-254) scale(1,1)"><g><path fill="none" stroke="none"/><text fill="#000000" stroke="none" font-family="Roboto" font-size="13px" font-style="normal" font-weight="normal" text-decoration="none" x="278" y="578.5">+SwapBuffers(nativeWindow: void*): void</text></g></g><g transform="translate(-239,-254) scale(1,1)"><rect fill="#C0C0C0" stroke="none" x="680" y="295" width="226.76904296875" height="72" opacity="0.2"/></g><g transform="translate(-239,-254) scale(1,1)"><rect fill="#ffffff" stroke="none" x="673" y="288" width="226.76904296875" height="72"/></g><g transform="translate(-239,-254) scale(1,1)"><path fill="none" stroke="#000000" d="M 673 288 L 899.76904296875 288 L 899.76904296875 360 L 673 360 L 673 288 Z Z" stroke-miterlimit="10"/></g><g transform="translate(-239,-254) scale(1,1)"><path fill="none" stroke="#000000" d="M 673 328 L 899.76904296875 328" stroke-miterlimit="10"/></g><g transform="translate(-239,-254) scale(1,1)"><path fill="none" stroke="#000000" d="M 673 351 L 899.76904296875 351" stroke-miterlimit="10"/></g><g transform="translate(-239,-254) scale(1,1)"><g><path fill="none" stroke="none"/><text fill="#000000" stroke="none" font-family="Roboto" font-size="13px" font-style="normal" font-weight="bold" text-decoration="none" x="742.2587890625" y="307.5">MacOSWindow</text></g></g><g transform="translate(-239,-254) scale(1,1)"><g><path fill="none" stroke="none"/><text fill="#000000" stroke="none" font-family="Roboto" font-size="13px" font-style="normal" font-weight="normal" text-decoration="none" x="745.5595703125" y="322.5">(from MacOS)</text></g></g><g transform="translate(-239,-254) scale(1,1)"><g><path fill="none" stroke="none"/><text fill="#000000" stroke="none" font-family="Roboto" font-size="13px" font-style="normal" font-weight="normal" text-decoration="none" x="678" y="345.5">-m_windowHandle: GLFWwindow</text></g></g><g transform="translate(-239,-254) scale(1,1)"><path fill="none" stroke="#000000" d="M 672 325 L 548 327" stroke-miterlimit="10"/></g><g transform="translate(-239,-254) scale(1,1)"><path fill="#FFFFFF" stroke="none" d="M 568.1869332188909 318.2542737742347 L 548 327 L 568.4584796910774 335.09015504979806"/></g><g transform="translate(-239,-254) scale(1,1)"><path fill="none" stroke="#000000" d="M 568.1869332188909 318.2542737742347 L 548 327 L 568.4584796910774 335.09015504979806 L 568.1869332188909 318.2542737742347" stroke-miterlimit="10"/></g><g transform="translate(-239,-254) scale(1,1)"><rect fill="#C0C0C0" stroke="none" x="680" y="511" width="153.45361328125" height="59" opacity="0.2"/></g><g transform="translate(-239,-254) scale(1,1)"><rect fill="#ffffff" stroke="none" x="673" y="504" width="153.45361328125" height="59"/></g><g transform="translate(-239,-254) scale(1,1)"><path fill="none" stroke="#000000" d="M 673 504 L 826.45361328125 504 L 826.45361328125 563 L 673 563 L 673 504 Z Z" stroke-miterlimit="10"/></g><g transform="translate(-239,-254) scale(1,1)"><path fill="none" stroke="#000000" d="M 673 544 L 826.45361328125 544" stroke-miterlimit="10"/></g><g transform="translate(-239,-254) scale(1,1)"><path fill="none" stroke="#000000" d="M 673 554 L 826.45361328125 554" stroke-miterlimit="10"/></g><g transform="translate(-239,-254) scale(1,1)"><g><path fill="none" stroke="none"/><text fill="#000000" stroke="none" font-family="Roboto" font-size="13px" font-style="normal" font-weight="bold" text-decoration="none" x="678.8330078125" y="523.5">OpenGLGraphicsContext</text></g></g><g transform="translate(-239,-254) scale(1,1)"><g><path fill="none" stroke="none"/><text fill="#000000" stroke="none" font-family="Roboto" font-size="13px" font-style="normal" font-weight="normal" text-decoration="none" x="706.76904296875" y="538.5">(from OpenGL)</text></g></g><g transform="translate(-239,-254) scale(1,1)"><path fill="none" stroke="#000000" d="M 672 534 L 521 537" stroke-miterlimit="10"/></g><g transform="translate(-239,-254) scale(1,1)"><path fill="#FFFFFF" stroke="none" d="M 541.1541068916832 528.1788903533283 L 521 537 L 541.4885721006194 545.0136392031161"/></g><g transform="translate(-239,-254) scale(1,1)"><path fill="none" stroke="#000000" d="M 541.1541068916832 528.1788903533283 L 521 537 L 541.4885721006194 545.0136392031161 L 541.1541068916832 528.1788903533283" stroke-miterlimit="10"/></g><g transform="translate(-239,-254) scale(1,1)"><path fill="none" stroke="#000000" d="M 397 395 L 396 495" stroke-miterlimit="10"/></g><g transform="translate(-239,-254) scale(1,1)"><path fill="#000000" stroke="none" d="M 391.8923143717073 484.79574016505273 L 396 495 L 400.31092896353243 484.879926310971 L 396.2199890008249 473.00109991750685"/></g><g transform="translate(-239,-254) scale(1,1)"><path fill="none" stroke="#000000" d="M 391.8923143717073 484.79574016505273 L 396 495 L 400.31092896353243 484.879926310971 L 396.2199890008249 473.00109991750685 L 391.8923143717073 484.79574016505273" stroke-miterlimit="10"/></g></g></svg>