<svg version="1.1" xmlns="http://www.w3.org/2000/svg" xmlns:xlink="http://www.w3.org/1999/xlink" width="528.3623046875" height="292"><defs/><g><text fill="#eeeeee" stroke="none" font-family="Arial" font-size="24px" font-style="normal" font-weight="normal" text-decoration="none" x="0" y="0">UNREGISTERED</text><text fill="#eeeeee" stroke="none" font-family="Arial" font-size="24px" font-style="normal" font-weight="normal" text-decoration="none" x="0" y="30">UNREGISTERED</text><text fill="#eeeeee" stroke="none" font-family="Arial" font-size="24px" font-style="normal" font-weight="normal" text-decoration="none" x="0" y="60">UNREGISTERED</text><text fill="#eeeeee" stroke="none" font-family="Arial" font-size="24px" font-style="normal" font-weight="normal" text-decoration="none" x="0" y="90">UNREGISTERED</text><text fill="#eeeeee" stroke="none" font-family="Arial" font-size="24px" font-style="normal" font-weight="normal" text-decoration="none" x="0" y="120">UNREGISTERED</text><text fill="#eeeeee" stroke="none" font-family="Arial" font-size="24px" font-style="normal" font-weight="normal" text-decoration="none" x="0" y="150">UNREGISTERED</text><text fill="#eeeeee" stroke="none" font-family="Arial" font-size="24px" font-style="normal" font-weight="normal" text-decoration="none" x="0" y="180">UNREGISTERED</text><text fill="#eeeeee" stroke="none" font-family="Arial" font-size="24px" font-style="normal" font-weight="normal" text-decoration="none" x="0" y="210">UNREGISTERED</text><text fill="#eeeeee" stroke="none" font-family="Arial" font-size="24px" font-style="normal" font-weight="normal" text-decoration="none" x="0" y="240">UNREGISTERED</text><text fill="#eeeeee" stroke="none" font-family="Arial" font-size="24px" font-style="normal" font-weight="normal" text-decoration="none" x="0" y="270">UNREGISTERED</text><text fill="#eeeeee" stroke="none" font-family="Arial" font-size="24px" font-style="normal" font-weight="normal" text-decoration="none" x="200" y="0">UNREGISTERED</text><text fill="#eeeeee" stroke="none" font-family="Arial" font-size="24px" font-style="normal" font-weight="normal" text-decoration="none" x="200" y="30">UNREGISTERED</text><text fill="#eeeeee" stroke="none" font-family="Arial" font-size="24px" font-style="normal" font-weight="normal" text-decoration="none" x="200" y="60">UNREGISTERED</text><text fill="#eeeeee" stroke="none" font-family="Arial" font-size="24px" font-style="normal" font-weight="normal" text-decoration="none" x="200" y="90">UNREGISTERED</text><text fill="#eeeeee" stroke="none" font-family="Arial" font-size="24px" font-style="normal" font-weight="normal" text-decoration="none" x="200" y="120">UNREGISTERED</text><text fill="#eeeeee" stroke="none" font-family="Arial" font-size="24px" font-style="normal" font-weight="normal" text-decoration="none" x="200" y="150">UNREGISTERED</text><text fill="#eeeeee" stroke="none" font-family="Arial" font-size="24px" font-style="normal" font-weight="normal" text-decoration="none" x="200" y="180">UNREGISTERED</text><text fill="#eeeeee" stroke="none" font-family="Arial" font-size="24px" font-style="normal" font-weight="normal" text-decoration="none" x="200" y="210">UNREGISTERED</text><text fill="#eeeeee" stroke="none" font-family="Arial" font-size="24px" font-style="normal" font-weight="normal" text-decoration="none" x="200" y="240">UNREGISTERED</text><text fill="#eeeeee" stroke="none" font-family="Arial" font-size="24px" font-style="normal" font-weight="normal" text-decoration="none" x="200" y="270">UNREGISTERED</text><text fill="#eeeeee" stroke="none" font-family="Arial" font-size="24px" font-style="normal" font-weight="normal" text-decoration="none" x="400" y="0">UNREGISTERED</text><text fill="#eeeeee" stroke="none" font-family="Arial" font-size="24px" font-style="normal" font-weight="normal" text-decoration="none" x="400" y="30">UNREGISTERED</text><text fill="#eeeeee" stroke="none" font-family="Arial" font-size="24px" font-style="normal" font-weight="normal" text-decoration="none" x="400" y="60">UNREGISTERED</text><text fill="#eeeeee" stroke="none" font-family="Arial" font-size="24px" font-style="normal" font-weight="normal" text-decoration="none" x="400" y="90">UNREGISTERED</text><text fill="#eeeeee" stroke="none" font-family="Arial" font-size="24px" font-style="normal" font-weight="normal" text-decoration="none" x="400" y="120">UNREGISTERED</text><text fill="#eeeeee" stroke="none" font-family="Arial" font-size="24px" font-style="normal" font-weight="normal" text-decoration="none" x="400" y="150">UNREGISTERED</text><text fill="#eeeeee" stroke="none" font-family="Arial" font-size="24px" font-style="normal" font-weight="normal" text-decoration="none" x="400" y="180">UNREGISTERED</text><text fill="#eeeeee" stroke="none" font-family="Arial" font-size="24px" font-style="normal" font-weight="normal" text-decoration="none" x="400" y="210">UNREGISTERED</text><text fill="#eeeeee" stroke="none" font-family="Arial" font-size="24px" font-style="normal" font-weight="normal" text-decoration="none" x="400" y="240">UNREGISTERED</text><text fill="#eeeeee" stroke="none" font-family="Arial" font-size="24px" font-style="normal" font-weight="normal" text-decoration="none" x="400" y="270">UNREGISTERED</text><g transform="translate(-86,-30) scale(1,1)"><rect fill="#C0C0C0" stroke="none" x="383" y="159" width="228.3623046875" height="160" opacity="0.2"/></g><g transform="translate(-86,-30) scale(1,1)"><rect fill="#ffffff" stroke="none" x="376" y="152" width="228.3623046875" height="160"/></g><g transform="translate(-86,-30) scale(1,1)"><path fill="none" stroke="#000000" d="M 376 152 L 604.3623046875 152 L 604.3623046875 312 L 376 312 L 376 152 Z Z" stroke-miterlimit="10"/></g><g transform="translate(-86,-30) scale(1,1)"><path fill="none" stroke="#000000" d="M 376 177 L 604.3623046875 177" stroke-miterlimit="10"/></g><g transform="translate(-86,-30) scale(1,1)"><path fill="none" stroke="#000000" d="M 376 230 L 604.3623046875 230" stroke-miterlimit="10"/></g><g transform="translate(-86,-30) scale(1,1)"><g><path fill="none" stroke="none"/><text fill="#000000" stroke="none" font-family="Roboto" font-size="13px" font-style="normal" font-weight="bold" text-decoration="none" x="457.560546875" y="171.5">Application</text></g></g><g transform="translate(-86,-30) scale(1,1)"><g><path fill="none" stroke="none"/><text fill="#000000" stroke="none" font-family="Roboto" font-size="13px" font-style="normal" font-weight="normal" text-decoration="none" x="381" y="194.5">-s_instance: Application</text><path fill="none" stroke="#000000" d="M 381 194.5 L 517.97607421875 194.5" stroke-miterlimit="10"/></g></g><g transform="translate(-86,-30) scale(1,1)"><g><path fill="none" stroke="none"/><text fill="#000000" stroke="none" font-family="Roboto" font-size="13px" font-style="normal" font-weight="normal" text-decoration="none" x="381" y="209.5">-m_isRunning: bool = true</text></g></g><g transform="translate(-86,-30) scale(1,1)"><g><path fill="none" stroke="none"/><text fill="#000000" stroke="none" font-family="Roboto" font-size="13px" font-style="normal" font-weight="normal" text-decoration="none" x="381" y="224.5">-m_window: Window</text></g></g><g transform="translate(-86,-30) scale(1,1)"><g><path fill="none" stroke="none"/><text fill="#000000" stroke="none" font-family="Roboto" font-size="13px" font-style="normal" font-weight="normal" text-decoration="none" x="381" y="247.5">+GetInstance(): Application</text><path fill="none" stroke="#000000" d="M 381 247.5 L 538.5234375 247.5" stroke-miterlimit="10"/></g></g><g transform="translate(-86,-30) scale(1,1)"><g><path fill="none" stroke="none"/><text fill="#000000" stroke="none" font-family="Roboto" font-size="13px" font-style="normal" font-weight="normal" text-decoration="none" x="381" y="262.5">+Application()</text></g></g><g transform="translate(-86,-30) scale(1,1)"><g><path fill="none" stroke="none"/><text fill="#000000" stroke="none" font-family="Roboto" font-size="13px" font-style="normal" font-weight="normal" text-decoration="none" x="381" y="277.5">+Application(applicationName: string)</text></g></g><g transform="translate(-86,-30) scale(1,1)"><g><path fill="none" stroke="none"/><text fill="#000000" stroke="none" font-family="Roboto" font-size="13px" font-style="normal" font-weight="normal" text-decoration="none" x="381" y="292.5">+Close(): void</text></g></g><g transform="translate(-86,-30) scale(1,1)"><g><path fill="none" stroke="none"/><text fill="#000000" stroke="none" font-family="Roboto" font-size="13px" font-style="normal" font-weight="normal" text-decoration="none" x="381" y="307.5">-Run(): void</text></g></g><g transform="translate(-86,-30) scale(1,1)"><rect fill="#C0C0C0" stroke="none" x="103" y="191" width="152" height="44" opacity="0.2"/></g><g transform="translate(-86,-30) scale(1,1)"><rect fill="#ffffff" stroke="none" x="96" y="184" width="152" height="44"/></g><g transform="translate(-86,-30) scale(1,1)"><path fill="none" stroke="#000000" d="M 96 184 L 248 184 L 248 228 L 96 228 L 96 184 Z Z" stroke-miterlimit="10"/></g><g transform="translate(-86,-30) scale(1,1)"><path fill="none" stroke="#000000" d="M 96 209 L 248 209" stroke-miterlimit="10"/></g><g transform="translate(-86,-30) scale(1,1)"><path fill="none" stroke="#000000" d="M 96 219 L 248 219" stroke-miterlimit="10"/></g><g transform="translate(-86,-30) scale(1,1)"><g><path fill="none" stroke="none"/><text fill="#000000" stroke="none" font-family="Roboto" font-size="13px" font-style="normal" font-weight="bold" text-decoration="none" x="122.535888671875" y="203.5">EditorApplication</text></g></g><g transform="translate(-86,-30) scale(1,1)"><path fill="none" stroke="#000000" d="M 249 212 L 375 223" stroke-miterlimit="10"/></g><g transform="translate(-86,-30) scale(1,1)"><path fill="#FFFFFF" stroke="none" d="M 354.0194556719783 229.61942291290683 L 375 223 L 355.4838760034129 212.84515366192892"/></g><g transform="translate(-86,-30) scale(1,1)"><path fill="none" stroke="#000000" d="M 354.0194556719783 229.61942291290683 L 375 223 L 355.4838760034129 212.84515366192892 L 354.0194556719783 229.61942291290683" stroke-miterlimit="10"/></g><g transform="translate(-86,-30) scale(1,1)"><path fill="#ffffff" stroke="none" d="M 432 40 L 580 40 L 590 50 L 590 110 L 432 110 L 432 40"/></g><g transform="translate(-86,-30) scale(1,1)"><path fill="none" stroke="#000000" d="M 432 40 L 580 40 L 590 50 L 590 110 L 432 110 L 432 40 L 432 40" stroke-miterlimit="10"/></g><g transform="translate(-86,-30) scale(1,1)"><path fill="none" stroke="#000000" d="M 580 40 L 580 50 L 590 50 L 580 40" stroke-miterlimit="10"/></g><g transform="translate(-86,-30) scale(1,1)"><g><path fill="none" stroke="none"/><text fill="#000000" stroke="none" font-family="Roboto" font-size="13px" font-style="normal" font-weight="normal" text-decoration="none" x="437" y="58">Application has a friend</text><text fill="#000000" stroke="none" font-family="Roboto" font-size="13px" font-style="normal" font-weight="normal" text-decoration="none" x="437" y="71">relationship with main</text><text fill="#000000" stroke="none" font-family="Roboto" font-size="13px" font-style="normal" font-weight="normal" text-decoration="none" x="437" y="84">function which calls</text><text fill="#000000" stroke="none" font-family="Roboto" font-size="13px" font-style="normal" font-weight="normal" text-decoration="none" x="437" y="97">Run()</text></g></g><g transform="translate(-86,-30) scale(1,1)"><path fill="none" stroke="#000000" d="M 501 151 L 506 112" stroke-miterlimit="10" stroke-dasharray="3"/></g></g></svg>